<svg width="96" height="32" viewBox="0 0 96 32" fill="none" xmlns="http://www.w3.org/2000/svg">
<g id="5">
<path id="Subtract" fill-rule="evenodd" clip-rule="evenodd" d="M4.93531 1.16335C10.9396 -3.37956 30.9856 8.66075 30.9856 16.1899C30.9856 23.7191 11.4161 35.0287 4.93531 31.2482C-1.54549 27.436 -1.06896 5.6745 4.93531 1.16335ZM12.5597 18.922C12.5597 20.7011 13.0998 22.1942 15.546 22.1942C15.959 22.1942 16.3719 22.0989 16.6896 21.94C17.0391 21.7494 17.2615 21.4635 17.2615 21.0823C17.2615 20.6375 16.9438 20.2245 16.3719 20.2245C16.3084 20.2245 16.2766 20.2245 16.1178 20.2563C16.0283 20.2563 15.9489 20.2664 15.8795 20.2752C15.8258 20.282 15.7782 20.2881 15.7366 20.2881C15.1647 20.2881 14.8471 19.7798 14.8471 18.8902V14.6015H16.2766C17.1662 14.6015 17.325 13.9979 17.325 13.6802C17.325 13.3625 17.1662 12.7589 16.2766 12.7589H14.8471V11.1705C14.8471 10.1221 14.0846 9.93149 13.7034 9.93149C13.3222 9.93149 12.5597 10.1221 12.5597 11.1705V12.7589H11.7973C10.9077 12.7589 10.7489 13.3625 10.7489 13.6802C10.7489 13.9979 10.9077 14.6015 11.7973 14.6015H12.5597V18.922Z" fill="#EB4762"/>
<g id="Group">
<path id="Vector" d="M42.2952 22.1942C39.849 22.1942 39.309 20.7011 39.309 18.922V14.6015H38.5465C37.657 14.6015 37.4982 13.9979 37.4982 13.6802C37.4982 13.3625 37.657 12.7589 38.5465 12.7589H39.309V11.1705C39.309 10.1221 40.0714 9.93152 40.4527 9.93152C40.8339 9.93152 41.5963 10.1221 41.5963 11.1705V12.7589H43.0259C43.9154 12.7589 44.0743 13.3625 44.0743 13.6802C44.0743 13.9979 43.9154 14.6015 43.0259 14.6015H41.5963V18.8903C41.5963 19.7798 41.914 20.2881 42.4858 20.2881C42.5811 20.2881 42.7082 20.2563 42.8671 20.2563C43.0259 20.2246 43.0577 20.2246 43.1212 20.2246C43.6931 20.2246 44.0107 20.6375 44.0107 21.0823C44.0107 21.4635 43.7884 21.7494 43.4389 21.9401C43.1212 22.0989 42.7082 22.1942 42.2952 22.1942Z" fill="#717171"/>
<path id="Vector_2" d="M50.0468 22.2578C47.2511 22.2578 45.0273 20.2246 45.0273 17.3336C45.0273 14.4109 47.2511 12.473 50.0468 12.473C52.8424 12.473 55.0662 14.4109 55.0662 17.3336C55.098 20.2563 52.8424 22.2578 50.0468 22.2578ZM50.0468 14.3791C48.2042 14.3791 47.3782 15.904 47.3782 17.3336C47.3782 18.7632 48.236 20.3516 50.0468 20.3516C51.8894 20.3516 52.7153 18.795 52.7153 17.3336C52.7153 15.8723 51.8894 14.3791 50.0468 14.3791Z" fill="#717171"/>
<path id="Vector_3" d="M65.6134 22.1624C65.264 22.1624 64.5015 22.0036 64.5015 20.9552V20.6058H64.4698C63.8344 21.6541 62.5954 22.2577 61.2929 22.2577C58.4655 22.2577 56.75 20.0339 56.75 17.3336C56.75 14.6015 58.5926 12.473 61.2294 12.473C62.9131 12.473 63.8344 13.3307 64.3427 13.9026H64.4062V8.56545C64.4062 7.45355 65.1687 7.26294 65.5499 7.26294C65.9311 7.26294 66.6936 7.45355 66.6936 8.56545V20.9552C66.7253 22.0036 65.9629 22.1624 65.6134 22.1624ZM61.7694 20.3516C63.4532 20.3516 64.4698 18.8267 64.4698 17.3971C64.4698 15.9675 63.4532 14.3791 61.7694 14.3791C59.9904 14.3791 59.1009 15.904 59.1009 17.3336C59.1009 18.7632 59.9904 20.3516 61.7694 20.3516Z" fill="#717171"/>
<path id="Vector_4" d="M77.8443 22.1624C77.4948 22.1624 76.7324 22.0036 76.7324 20.9552V20.6058H76.7006C76.0652 21.6541 74.8263 22.2577 73.5237 22.2577C70.6963 22.2577 68.9808 20.0339 68.9808 17.3336C68.9808 14.6015 70.8234 12.473 73.4602 12.473C75.1439 12.473 76.0652 13.3307 76.5735 13.9026H76.6371V8.56545C76.6371 7.45355 77.3995 7.26294 77.7807 7.26294C78.162 7.26294 78.9244 7.45355 78.9244 8.56545V20.9552C78.9244 22.0036 78.1937 22.1624 77.8443 22.1624ZM74.0003 20.3516C75.684 20.3516 76.7006 18.8267 76.7006 17.3971C76.7006 15.9675 75.684 14.3791 74.0003 14.3791C72.2212 14.3791 71.3317 15.904 71.3317 17.3336C71.3317 18.7632 72.1895 20.3516 74.0003 20.3516Z" fill="#717171"/>
<path id="Vector_5" d="M81.7836 8.56545C81.7836 7.45355 82.546 7.26294 82.9272 7.26294C83.3085 7.26294 84.0709 7.45355 84.0709 8.56545V20.8917C84.0709 22.0036 83.3085 22.1942 82.9272 22.1942C82.546 22.1942 81.7836 22.0036 81.7836 20.8917V8.56545Z" fill="#717171"/>
<path id="Vector_6" d="M88.6773 18.0961C88.7727 19.3986 89.9799 20.3834 91.3142 20.3834C92.2672 20.3834 92.8708 20.0657 93.4426 19.5892C93.7603 19.335 93.9827 19.2715 94.2369 19.2715C94.7452 19.2715 95.1581 19.6527 95.1581 20.1928C95.1581 20.3834 95.0946 20.7329 94.7769 21.0188C93.8874 21.8765 92.839 22.2578 91.3459 22.2578C88.4867 22.2578 86.39 20.4152 86.39 17.4289C86.39 14.4427 88.4867 12.473 91.2824 12.473C93.5062 12.473 95.317 13.7438 95.6982 16.4759C95.73 16.6665 95.73 16.7936 95.73 16.9524C95.73 17.7466 95.2852 18.0961 94.5228 18.0961H88.6773ZM93.4109 16.4441C93.4109 15.2369 92.7437 14.2203 91.2188 14.2203C89.8528 14.2203 88.7409 15.1734 88.6456 16.4441H93.4109Z" fill="#717171"/>
</g>
</g>
</svg>
