<svg width="32" height="32" viewBox="0 0 32 32" fill="none" xmlns="http://www.w3.org/2000/svg">
<path fill-rule="evenodd" clip-rule="evenodd" d="M4.91853 31.0413C-1.63951 27.2556 -1.63951 4.53882 4.91853 0.752368C11.4772 -3.03473 31.1546 8.32396 31.1546 15.8969C31.1546 23.4704 11.4772 34.8284 4.91853 31.0413ZM15.3753 19.5144C15.2682 19.531 15.1696 19.5462 15.0944 19.5462C14.6085 19.5462 14.3427 19.1335 14.3336 18.3544V14.6502H15.562C16.3137 14.6502 16.4417 14.1186 16.4417 13.8528C16.4417 13.587 16.3137 13.0554 15.562 13.0554H14.3336V11.6801C14.3336 10.7632 13.7008 10.5986 13.371 10.5986C13.0503 10.5986 12.4084 10.7632 12.4084 11.6801V13.0554H11.7664C11.0147 13.0554 10.8867 13.587 10.8867 13.8528C10.8867 14.1186 11.0147 14.6502 11.7664 14.6502H12.4084V18.3727C12.4084 19.9035 12.8668 21.1965 14.9475 21.1965C15.3053 21.1965 15.6443 21.1136 15.9107 20.9764C16.2039 20.8203 16.3868 20.5546 16.3868 20.243C16.3868 19.8577 16.1301 19.4914 15.6351 19.4914C15.5711 19.4914 15.5346 19.4914 15.4059 19.5097C15.3956 19.5112 15.3854 19.5128 15.3753 19.5144Z" fill="#FF5869"/>
</svg>
